# xmcd
#
# Track frame offsets:
#	150
#	12370
#	31099
#	49359
#	69861
#	81673
#	95734
#	112871
#	128694
#	144389
#	164470
#	182199
#	196453
#
# Disc length: 2832 seconds
# Revision: 0
# Processed by: cddbd v1.5.2PL0 Copyright (c) Steve Scherf et al.
# Submitted via: dBpowerAMP V12.0
#
DISCID=b10b0e0d
DTITLE=Jason Lee - Better Late Than Never
DYEAR=2010
DGENRE=Country
TTITLE0=Up a Creek
TTITLE1=Back to You
TTITLE2=A Memory
TTITLE3=Ordinary Guy
TTITLE4=Livin For Tonight
TTITLE5=No Reason At All
TTITLE6=One Last Kiss
TTITLE7=Take Me Away
TTITLE8=Get Off on You
TTITLE9=Rain
TTITLE10=Lay Down
TTITLE11=Unbroken
TTITLE12=Draggin Myself Home
EXTD=
EXTT0=
EXTT1=
EXTT2=
EXTT3=
EXTT4=
EXTT5=
EXTT6=
EXTT7=
EXTT8=
EXTT9=
EXTT10=
EXTT11=
EXTT12=
PLAYORDER=
